<svg xmlns="http://www.w3.org/2000/svg" xmlns:xlink="http://www.w3.org/1999/xlink" width="465.402" height="310.61" viewBox="0 0 465.402 310.61">
  <defs>
    <clipPath id="clip-path">
      <rect id="Rectangle_40693" data-name="Rectangle 40693" width="45.523" height="40.474" fill="#d2f9da"/>
    </clipPath>
    <clipPath id="clip-path-2">
      <rect id="Rectangle_40694" data-name="Rectangle 40694" width="52.005" height="31.096" fill="#d2f9da"/>
    </clipPath>
    <clipPath id="clip-path-3">
      <rect id="Rectangle_40702" data-name="Rectangle 40702" width="1.935" height="1.904" fill="none"/>
    </clipPath>
    <clipPath id="clip-path-4">
      <rect id="Rectangle_40703" data-name="Rectangle 40703" width="1.049" height="1.099" fill="none"/>
    </clipPath>
    <clipPath id="clip-path-5">
      <rect id="Rectangle_40704" data-name="Rectangle 40704" width="1.357" height="1.295" fill="none"/>
    </clipPath>
    <clipPath id="clip-path-6">
      <rect id="Rectangle_40705" data-name="Rectangle 40705" width="1.731" height="1.669" fill="none"/>
    </clipPath>
    <clipPath id="clip-path-7">
      <rect id="Rectangle_40706" data-name="Rectangle 40706" width="1.017" height="1.017" fill="none"/>
    </clipPath>
    <clipPath id="clip-path-8">
      <rect id="Rectangle_40707" data-name="Rectangle 40707" width="0.872" height="0.914" fill="none"/>
    </clipPath>
    <clipPath id="clip-path-9">
      <rect id="Rectangle_40708" data-name="Rectangle 40708" width="1.672" height="1.689" fill="none"/>
    </clipPath>
    <clipPath id="clip-path-10">
      <rect id="Rectangle_40713" data-name="Rectangle 40713" width="48.068" height="49.93" fill="#fff"/>
    </clipPath>
  </defs>
  <g id="Group_111074" data-name="Group 111074" transform="translate(-776.598 -162.794)">
    <g id="Group_110960" data-name="Group 110960" transform="translate(776.598 162.794)">
      <g id="Group_110961" data-name="Group 110961" transform="translate(0 0)">
        <g id="Group_2401" data-name="Group 2401" transform="matrix(0.999, -0.052, 0.052, 0.999, 323.98, 51.242)">
          <path id="Path_20740" data-name="Path 20740" d="M4.46,72.89l10.311-1.132A2.3,2.3,0,0,1,16.933,72.8q.89,1.392,1.91,2.728A38.6,38.6,0,0,0,22.912,80.1a2.268,2.268,0,0,1,.552,2.5L19.483,92.678a2.227,2.227,0,0,0,1.09,2.827l8.869,4.424a2.2,2.2,0,0,0,2.826-.775l5.394-8.4A2.211,2.211,0,0,1,40.14,89.8a40.065,40.065,0,0,0,12.57,1.287,2.283,2.283,0,0,1,2.281,1.591l1.8,5.8a2.306,2.306,0,0,0,2.616,1.563l9.651-1.923a2.024,2.024,0,0,0,.557-.183,2.214,2.214,0,0,0,1.24-2.256l-.837-7.7L69.815,86.1A39.661,39.661,0,0,0,74.5,83.026,40.223,40.223,0,0,0,80,77.96a2.211,2.211,0,0,1,2.469-.588l8.119,3.217a2.291,2.291,0,0,0,2.9-1.112l3.383-6.78.964-1.946a2.321,2.321,0,0,0-.817-2.993L90,63.243a2.208,2.208,0,0,1-.984-2.41A39.771,39.771,0,0,0,90.114,52.4a6.979,6.979,0,0,0,.024-.715,1.212,1.212,0,0,1,.016-.24,2.262,2.262,0,0,1,1.6-1.933l9.409-2.949a1.675,1.675,0,0,0,.307-.12,2.3,2.3,0,0,0,1.248-2.489l-1.9-9.624A2.289,2.289,0,0,0,98.324,32.5L87.569,33.682a2.212,2.212,0,0,1-2.217-1.17A40.473,40.473,0,0,0,82,27.353q-1.009-1.323-2.106-2.537a2.333,2.333,0,0,1-.434-2.416l3.824-9.693A2.225,2.225,0,0,0,82.21,9.9L73.43,5.534a2.327,2.327,0,0,0-3,.824L66.157,13a2.284,2.284,0,0,1-2.661.934,39.981,39.981,0,0,0-12.123-2.213,2.271,2.271,0,0,1-2.134-1.6L46.585,1.639A2.349,2.349,0,0,0,43.9.042l-9.59,1.891a2.245,2.245,0,0,0-1.8,2.455l.044.45.976,8.95a2.3,2.3,0,0,1-1.247,2.3l-.009.007a39.734,39.734,0,0,0-5.957,3.761c-1.017.776-1.974,1.591-2.9,2.444a2.251,2.251,0,0,1-2.371.456L12.8,19.494a2.329,2.329,0,0,0-2.945,1.122l-4.35,8.742a2.516,2.516,0,0,0-.225.769A2.319,2.319,0,0,0,6.312,32.3l5.614,3.59a2.317,2.317,0,0,1,1.044,2.022,2.472,2.472,0,0,1-.117.63,39.834,39.834,0,0,0-2.069,15.615A2.243,2.243,0,0,1,9.575,56.3a2.3,2.3,0,0,1-.359.145L1.6,58.833A2.281,2.281,0,0,0,.041,61.442l.043.224L1.93,71.047A2.321,2.321,0,0,0,4.46,72.89ZM70.492,43.8a26.665,26.665,0,0,1,1.385,4.766,20.945,20.945,0,0,1-1.522,11.311c-.156.318-.319.627-.482.936-10.139,18.7-36.568,14.9-40.862-6.242a21.717,21.717,0,0,1,.8-9.865,14.212,14.212,0,0,1,.794-1.944,24.622,24.622,0,0,1,4.939-6.757A21.488,21.488,0,0,1,70.492,43.8Z" transform="translate(0 0)" fill="#ffe1af"/>
        </g>
        <g id="Group_110971" data-name="Group 110971" transform="translate(0 17.365)">
          <g id="Group_110972" data-name="Group 110972" transform="translate(0 0)">
            <g id="Group_110969" data-name="Group 110969" transform="translate(0 0)">
              <g id="Group_110973" data-name="Group 110973">
                <g id="Group_110964" data-name="Group 110964" transform="translate(271.949 14.482)" opacity="0.4">
                  <g id="Group_110963" data-name="Group 110963">
                    <g id="Group_110962" data-name="Group 110962" clip-path="url(#clip-path)">
                      <path id="Path_88787" data-name="Path 88787" d="M1188.117,107.691s8.707-36.507,37.791-40.453c0,0,5.658-.681,7.527,5.553s-9.379,6.251-16.337,8.74-23.192,13.071-28.981,26.161" transform="translate(-1188.118 -67.217)" fill="#d2f9da"/>
                    </g>
                  </g>
                </g>
                <g id="Group_110967" data-name="Group 110967" transform="translate(272.481 30.778)" opacity="0.4">
                  <g id="Group_110966" data-name="Group 110966">
                    <g id="Group_110965" data-name="Group 110965" clip-path="url(#clip-path-2)">
                      <path id="Path_88788" data-name="Path 88788" d="M1190.593,173.967s16.675-33.623,45.9-30.944c0,0,5.667.606,6.09,7.1s-10.542,3.988-17.881,4.852-25.533,7.535-34.111,18.992" transform="translate(-1190.592 -142.871)" fill="#d2f9da"/>
                    </g>
                  </g>
                </g>
                <path id="Path_88789" data-name="Path 88789" d="M1598.012,789.831s8.707-36.507,37.791-40.453c0,0,5.658-.681,7.527,5.552s-9.379,6.251-16.337,8.74-23.192,13.071-28.981,26.161" transform="translate(-1221.762 -587.926)" fill="#b9f1c5"/>
                <path id="Path_88790" data-name="Path 88790" d="M1601.108,692.706s-4.772-37.227,21.034-51.207c0,0,5.052-2.639,9,2.53s-6.561,9.165-12.188,13.954-17.068,20.431-17.851,34.722" transform="translate(-1223.918 -502.776)" fill="#d2f9da"/>
                <path id="Path_88791" data-name="Path 88791" d="M1668.462,878.037c-3.278-13.93-26.747-10.4-26.747-10.4s-16.651,23.624-21.278,24.044,10.287-22.975,10.287-22.975c-8.9-1.163-32.013,9-32.013,9s.49,28.232-4.1,27.5.843-25.02.843-25.02c-8.726,2.3-17.127,12.091-17.127,12.091-10.63,16.053,10.558,28.859,10.558,28.859a45.864,45.864,0,0,1-6.466,20.8h0a33.236,33.236,0,0,0-2.941,5.5l2.355.08q.321-.937.7-1.8a.013.013,0,0,1,0-.01l.011-.025c.174-.358.423-.867.733-1.488v0s0,0,0,0c.767-1.383,1.288-2.405,1.621-3.145l0-.007c2.3-4.343,5.6-9.992,7.716-11.129a4.569,4.569,0,0,1-.468-1.1l.468,1.1c3.741,8.764,23.848,10.88,35.155,8.958s6.519-5.251.645-10.589-18.589-4.412-22.264-6.551,1.863-3.968,9.33-3.141,10.959,8.431,23.014,9.989,22.034-20.852,22.034-20.852c-8.437,2.307-23.255-2.8-23.734-5.694s21.683-1.86,25.167-2.607,9.764-7.445,6.486-21.375" transform="translate(-1250.86 -680.412)" fill="#ffe9c5"/>
                <path id="Path_88792" data-name="Path 88792" d="M.919,309.077c3.278-13.93,26.747-10.4,26.747-10.4S44.317,322.3,48.943,322.718s-10.287-22.974-10.287-22.974c8.9-1.164,32.013,9,32.013,9s-.49,28.232,4.1,27.5-.843-25.02-.843-25.02c8.726,2.3,17.127,12.091,17.127,12.091,10.63,16.053-10.559,28.859-10.559,28.859a45.861,45.861,0,0,0,6.466,20.8h0a33.279,33.279,0,0,1,2.94,5.5l-2.355.08q-.32-.936-.7-1.8a.015.015,0,0,0,0-.01l-.011-.025c-.174-.358-.423-.867-.733-1.488v0s0,0,0,0c-.767-1.382-1.288-2.405-1.621-3.145a.022.022,0,0,1,0-.007c-2.3-4.343-5.6-9.992-7.716-11.129a4.571,4.571,0,0,0,.468-1.1l-.468,1.1C73.011,369.7,52.9,371.819,41.6,369.9s-6.519-5.251-.645-10.589,18.589-4.411,22.264-6.551-1.863-3.968-9.33-3.141-10.959,8.431-23.013,9.989S8.837,338.754,8.837,338.754c8.438,2.307,23.256-2.8,23.735-5.694S10.889,331.2,7.4,330.452s-9.764-7.445-6.486-21.375" transform="translate(0 -234.019)" fill="#ffe1af"/>
                <path id="Path_88793" data-name="Path 88793" d="M653.779,6.968c6.89-13.2,29.64-3.6,29.64-3.6s10.705,28.1,15.261,29.714-4.457-25.808-4.457-25.808c9.269,1.117,29.956,17.31,29.956,17.31s-7.76,28.334-2.948,28.779,5.59-25.439,5.59-25.439c8.2,4.561,14.154,16.6,14.154,16.6C747.559,63.437,722.9,70.894,722.9,70.894s-2.477,9.878,1.165,22.632h0a34.625,34.625,0,0,1,1.549,6.3l-2.395-.526c-.055-.684-.134-1.352-.242-2a.013.013,0,0,0,0-.012c0-.009,0-.019,0-.028-.083-.406-.2-.983-.356-1.688v0s0,0,0,0c-.417-1.591-.679-2.756-.824-3.588a.035.035,0,0,1,0-.008c-1.206-4.972-3.078-11.515-4.914-13.205a4.742,4.742,0,0,0,.753-.984l-.753.984c-6.026,7.872-26.841,4.83-37.745-.017s-5.22-6.971,2.075-10.841,19.875.337,24.13-.874-.857-4.48-8.6-5.567-13.217,5.679-25.77,4.146-16.846-26.691-16.846-26.691c7.912,4.5,24.164,3.164,25.392.368s-21.379-7.456-24.7-9.106-7.926-10.018-1.036-23.217" transform="translate(-533.134 0.004)" fill="#d2f9da"/>
              </g>
            </g>
          </g>
        </g>
        <g id="Group_2402" data-name="Group 2402" transform="matrix(0.999, -0.052, 0.052, 0.999, 398.423, 3.34)">
          <path id="Path_20741" data-name="Path 20741" d="M2.77,45.265l6.4-.7a1.428,1.428,0,0,1,1.343.647q.554.864,1.187,1.694a24.012,24.012,0,0,0,2.526,2.838,1.407,1.407,0,0,1,.344,1.55L12.1,57.553a1.383,1.383,0,0,0,.676,1.756l5.508,2.747a1.367,1.367,0,0,0,1.755-.481l3.35-5.216a1.372,1.372,0,0,1,1.538-.59,24.894,24.894,0,0,0,7.806.8,1.418,1.418,0,0,1,1.417.988l1.12,3.6a1.433,1.433,0,0,0,1.625.971l5.993-1.194a1.222,1.222,0,0,0,.346-.114,1.374,1.374,0,0,0,.771-1.4l-.52-4.784-.129-1.166a24.59,24.59,0,0,0,2.911-1.91,25,25,0,0,0,3.417-3.146,1.373,1.373,0,0,1,1.534-.365l5.042,2a1.424,1.424,0,0,0,1.8-.691l2.1-4.211.6-1.208a1.442,1.442,0,0,0-.507-1.859l-4.357-2.8a1.37,1.37,0,0,1-.61-1.5,24.756,24.756,0,0,0,.68-5.24c.015-.153.014-.294.014-.444a.787.787,0,0,1,.01-.149,1.406,1.406,0,0,1,.995-1.2l5.843-1.831a1.035,1.035,0,0,0,.19-.074,1.428,1.428,0,0,0,.774-1.546l-1.181-5.976a1.422,1.422,0,0,0-1.548-1.136l-6.678.736A1.374,1.374,0,0,1,53,20.19a25.054,25.054,0,0,0-2.081-3.2q-.626-.822-1.308-1.575a1.449,1.449,0,0,1-.269-1.5L51.72,7.891a1.382,1.382,0,0,0-.669-1.745L45.6,3.436a1.445,1.445,0,0,0-1.864.512L41.084,8.074a1.42,1.42,0,0,1-1.653.58A24.83,24.83,0,0,0,31.9,7.28a1.409,1.409,0,0,1-1.325-1L28.929,1.018A1.459,1.459,0,0,0,27.262.026L21.307,1.2a1.4,1.4,0,0,0-1.118,1.525l.027.28.607,5.558a1.426,1.426,0,0,1-.775,1.431l-.006,0a24.72,24.72,0,0,0-3.7,2.336c-.631.482-1.226.988-1.8,1.517a1.4,1.4,0,0,1-1.472.283L7.949,12.106a1.446,1.446,0,0,0-1.829.7l-2.7,5.429a1.556,1.556,0,0,0-.139.478,1.44,1.44,0,0,0,.641,1.35l3.486,2.229a1.44,1.44,0,0,1,.648,1.256,1.581,1.581,0,0,1-.073.392,24.734,24.734,0,0,0-1.285,9.7,1.393,1.393,0,0,1-.751,1.333,1.428,1.428,0,0,1-.223.09L.991,36.535a1.416,1.416,0,0,0-.965,1.62l.026.139L1.2,44.12A1.44,1.44,0,0,0,2.77,45.265ZM43.775,27.2a16.579,16.579,0,0,1,.86,2.959,13,13,0,0,1-.945,7.024c-.1.2-.2.39-.3.582-6.3,11.61-22.708,9.25-25.375-3.876a13.48,13.48,0,0,1,.5-6.126,8.807,8.807,0,0,1,.493-1.207,15.294,15.294,0,0,1,3.067-4.2A13.344,13.344,0,0,1,43.775,27.2Z" transform="translate(0 0)" fill="#ffe9c5"/>
        </g>
        <g id="Group_111004" data-name="Group 111004" transform="matrix(0.999, -0.052, 0.052, 0.999, 5.432, 189.834)">
          <path id="Path_20741-2" data-name="Path 20741" d="M2.77,45.265l6.4-.7a1.428,1.428,0,0,1,1.343.647q.554.864,1.187,1.694a24.012,24.012,0,0,0,2.526,2.838,1.407,1.407,0,0,1,.344,1.55L12.1,57.553a1.383,1.383,0,0,0,.676,1.756l5.508,2.747a1.367,1.367,0,0,0,1.755-.481l3.35-5.216a1.372,1.372,0,0,1,1.538-.59,24.894,24.894,0,0,0,7.806.8,1.418,1.418,0,0,1,1.417.988l1.12,3.6a1.433,1.433,0,0,0,1.625.971l5.993-1.194a1.222,1.222,0,0,0,.346-.114,1.374,1.374,0,0,0,.771-1.4l-.52-4.784-.129-1.166a24.59,24.59,0,0,0,2.911-1.91,25,25,0,0,0,3.417-3.146,1.373,1.373,0,0,1,1.534-.365l5.042,2a1.424,1.424,0,0,0,1.8-.691l2.1-4.211.6-1.208a1.442,1.442,0,0,0-.507-1.859l-4.357-2.8a1.37,1.37,0,0,1-.61-1.5,24.756,24.756,0,0,0,.68-5.24c.015-.153.014-.294.014-.444a.787.787,0,0,1,.01-.149,1.406,1.406,0,0,1,.995-1.2l5.843-1.831a1.035,1.035,0,0,0,.19-.074,1.428,1.428,0,0,0,.774-1.546l-1.181-5.976a1.422,1.422,0,0,0-1.548-1.136l-6.678.736A1.374,1.374,0,0,1,53,20.19a25.054,25.054,0,0,0-2.081-3.2q-.626-.822-1.308-1.575a1.449,1.449,0,0,1-.269-1.5L51.72,7.891a1.382,1.382,0,0,0-.669-1.745L45.6,3.436a1.445,1.445,0,0,0-1.864.512L41.084,8.074a1.42,1.42,0,0,1-1.653.58A24.83,24.83,0,0,0,31.9,7.28a1.409,1.409,0,0,1-1.325-1L28.929,1.018A1.459,1.459,0,0,0,27.262.026L21.307,1.2a1.4,1.4,0,0,0-1.118,1.525l.027.28.607,5.558a1.426,1.426,0,0,1-.775,1.431l-.006,0a24.72,24.72,0,0,0-3.7,2.336c-.631.482-1.226.988-1.8,1.517a1.4,1.4,0,0,1-1.472.283L7.949,12.106a1.446,1.446,0,0,0-1.829.7l-2.7,5.429a1.556,1.556,0,0,0-.139.478,1.44,1.44,0,0,0,.641,1.35l3.486,2.229a1.44,1.44,0,0,1,.648,1.256,1.581,1.581,0,0,1-.073.392,24.734,24.734,0,0,0-1.285,9.7,1.393,1.393,0,0,1-.751,1.333,1.428,1.428,0,0,1-.223.09L.991,36.535a1.416,1.416,0,0,0-.965,1.62l.026.139L1.2,44.12A1.44,1.44,0,0,0,2.77,45.265ZM43.775,27.2a16.579,16.579,0,0,1,.86,2.959,13,13,0,0,1-.945,7.024c-.1.2-.2.39-.3.582-6.3,11.61-22.708,9.25-25.375-3.876a13.48,13.48,0,0,1,.5-6.126,8.807,8.807,0,0,1,.493-1.207,15.294,15.294,0,0,1,3.067-4.2A13.344,13.344,0,0,1,43.775,27.2Z" transform="translate(0 0)" fill="#c8f1d0"/>
        </g>
        <path id="Path_88784" data-name="Path 88784" d="M373.193,233.09H45.843a9.915,9.915,0,0,1-9.885-9.886V9.885A9.913,9.913,0,0,1,45.843,0h327.35a9.914,9.914,0,0,1,9.884,9.884V223.2a9.916,9.916,0,0,1-9.884,9.886" transform="translate(9.71 63.503)" fill="#474747"/>
        <path id="Path_88785" data-name="Path 88785" d="M.765,208.313h424.85s4.686,12.987-17.5,12.987c-18.777,0-103.029.54-188.657.426C83.783,221.545-9.463,226.989.765,208.313" transform="translate(5.433 88.28)" fill="#474747"/>
        <path id="Path_88786" data-name="Path 88786" d="M159.783,208.661s.022,4.535,5.786,4.535h59.443s4.935-1.163,3.832-4.884Z" transform="translate(24.438 88.28)" fill="#8e969c"/>
        <rect id="Rectangle_40686" data-name="Rectangle 40686" width="332.121" height="209.927" transform="translate(52.75 74.538)" fill="#fff"/>
        <g id="Group_111001" data-name="Group 111001" transform="translate(187.291 74.538)">
          <g id="Group_111003" data-name="Group 111003" transform="translate(0 0)">
            <g id="Group_110999" data-name="Group 110999" transform="translate(0 0)">
              <g id="Group_111002" data-name="Group 111002">
                <path id="Path_88795" data-name="Path 88795" d="M197.7,208.838l-189.957.055C3.019,200.42.754,193.382.162,187.278c0-.005,0-.009,0-.014C.053,186.145,0,185.06,0,184c0-.261,0-.519.009-.775v0c0-.1,0-.2.008-.293A31.789,31.789,0,0,1,1.3,174.969a41.02,41.02,0,0,1,3.089-7.51c.11-.211.22-.419.333-.627.016-.031.033-.063.049-.092,1.135-2.1,2.4-4.143,3.728-6.179.708-1.089,1.435-2.179,2.162-3.276a92.26,92.26,0,0,0,8.394-14.472,45.223,45.223,0,0,0,2.143-6.073,41.873,41.873,0,0,0,1.291-7.068c.055-.583.1-1.177.132-1.777v0q.04-.739.053-1.5.02-1,0-2.04v0a53.183,53.183,0,0,0-.98-8.788v0c-.03-.155-.059-.308-.092-.463v0c-.111-.562-.233-1.128-.366-1.7q-.176-.768-.374-1.551-.136-.541-.285-1.09-1.069-3.953-1.778-7.777-.39-2.1-.674-4.161v0l0-.031q-.2-1.415-.343-2.809c-.016-.155-.033-.312-.047-.466C12.034,38.718,62.764,3.756,113.331.286a117.349,117.349,0,0,1,21.308.447c20.341,2.324,39.3,10.222,52.911,24.371a30.059,30.059,0,0,0,9.913,6.794" transform="translate(0 -0.001)" fill="#e6fceb"/>
                <path id="Path_88796" data-name="Path 88796" d="M407.24,24.191v25.9H384.814V35.863c7.954-3.729,16.345-10.74,22.426-11.672" transform="translate(-334.688 -13.485)" fill="#a2ecb2"/>
                <rect id="Rectangle_40698" data-name="Rectangle 40698" width="35.979" height="10.262" transform="translate(44.209 35.561)" fill="#a2ecb2"/>
                <path id="Path_88797" data-name="Path 88797" d="M261.706,269.229l14.709-16.639h32.313l13.262,16.639Z" transform="translate(-230.509 -206.767)" fill="#d2f9da"/>
                <rect id="Rectangle_40699" data-name="Rectangle 40699" width="70.292" height="4.689" transform="translate(26.977 62.462)" fill="#a2ecb2"/>
                <rect id="Rectangle_40700" data-name="Rectangle 40700" width="130.859" height="69.679" transform="translate(31.31 138.716)" fill="#d2f9da"/>
                <rect id="Rectangle_40701" data-name="Rectangle 40701" width="139.075" height="3.59" transform="translate(26.819 138.716)" fill="#a2ecb2"/>
                <path id="Path_88798" data-name="Path 88798" d="M273.6,881.045H215.5V853.214h58.1Zm-57.4-.7h56.708V853.91H216.2Z" transform="translate(-178.609 -707.141)" fill="#a2ecb2"/>
                <path id="Path_88799" data-name="Path 88799" d="M273.6,1062.042H215.5v-27.831h58.1Zm-57.4-.7h56.708v-26.439H216.2Z" transform="translate(-178.609 -857.151)" fill="#a2ecb2"/>
                <path id="Path_88800" data-name="Path 88800" d="M636.155,881.045h-58.1V853.214h58.1Zm-57.4-.7h56.708V853.91H578.751Z" transform="translate(-500.711 -707.141)" fill="#a2ecb2"/>
                <path id="Path_88801" data-name="Path 88801" d="M636.155,1062.042h-58.1v-27.831h58.1Zm-57.4-.7h56.708v-26.439H578.751Z" transform="translate(-500.711 -857.151)" fill="#a2ecb2"/>
                <path id="Path_88802" data-name="Path 88802" d="M365.468,875.181H357.1a.754.754,0,0,1,0-1.508h8.366a.754.754,0,1,1,0,1.508" transform="translate(-295.339 -724.098)" fill="#a2ecb2"/>
                <path id="Path_88803" data-name="Path 88803" d="M365.468,1053.431H357.1a.754.754,0,0,1,0-1.509h8.366a.754.754,0,0,1,0,1.509" transform="translate(-295.339 -871.83)" fill="#a2ecb2"/>
                <path id="Path_88804" data-name="Path 88804" d="M831.63,756.884c-.909.8-3.323-1.959-3.656-2.326a.214.214,0,0,0-.035-.052l.735-2.047s3.166-.122,3.691.4.262,3.166-.735,4.023" transform="translate(-707.815 -623.626)" fill="#ed985f"/>
                <path id="Path_88805" data-name="Path 88805" d="M649.458,494.74c-.011-.315-12.8.3-13.024.761-2.063,4.234-1.371,5.464.375,5.007,1.12-.293,2.872,4.526,2.872,4.526l10.881-8.809Z" transform="translate(-548.044 -409.968)" fill="#2c3a64"/>
                <path id="Path_88806" data-name="Path 88806" d="M711.94,636.65l-.315,2.116s-.14,0-.385-.017c-.771-.053-2.642-.158-4.758-.385a41.479,41.479,0,0,1-6.792-1.126,6.987,6.987,0,0,1-1.674-.675c-2.291-1.4-6.05-5.686-8.5-9.971a3.065,3.065,0,0,1-.175-.315,15.355,15.355,0,0,1-2.238-6.331,9.016,9.016,0,0,1,.3-2.867,7.323,7.323,0,0,1,1.294-2.589,1.3,1.3,0,0,1,.245-.3,6.054,6.054,0,0,1,1.662-1.416c.42-.177.875.034,1.346.541v.017a8.052,8.052,0,0,1,1.207,1.786c.019.017.036.034.036.051.087.158.175.332.279.526a.4.4,0,0,1,.07.122c.192.4.385.822.577,1.26,2.152,4.688,4.443,11.787,6.35,13.905a10.5,10.5,0,0,0,2.372,1.541c1.522.809,3.486,1.719,5.2,2.481,2.152.945,3.9,1.645,3.9,1.645" transform="translate(-591.08 -507.816)" fill="#ed985f"/>
                <path id="Path_88807" data-name="Path 88807" d="M812.845,748.417v7.475a1.46,1.46,0,0,1-1.46,1.46h-12.07a1.46,1.46,0,0,1-1.46-1.46v-1.4a.847.847,0,0,0,.619-.772.827.827,0,0,0-.619-.885V748.5a.735.735,0,0,0,.348-.209.643.643,0,0,0-.012-.8,1.457,1.457,0,0,1,1.125-.529h12.07a1.46,1.46,0,0,1,1.46,1.46" transform="translate(-682.881 -619.076)" fill="#ffa412"/>
                <path id="Path_88808" data-name="Path 88808" d="M806.858,748.127v8.054a1.171,1.171,0,0,1-1.17,1.17h-7.833v-2.863a.846.846,0,0,0,.619-.772.827.827,0,0,0-.619-.885v-.884a1.077,1.077,0,0,0,.395-.122,1.291,1.291,0,0,0,.692-1.1,1.112,1.112,0,0,0-1.087-1.006V748.5a.735.735,0,0,0,.348-.209.669.669,0,0,0-.085-.882.591.591,0,0,0-.263-.14v-.309h7.833a1.171,1.171,0,0,1,1.17,1.17" transform="translate(-682.881 -619.076)" fill="#ffb93e"/>
                <path id="Path_88809" data-name="Path 88809" d="M813.878,765.648a1.29,1.29,0,0,1-.692,1.1,1.029,1.029,0,0,1-1.184-.137h0a1.055,1.055,0,0,1-.357-.792,1.17,1.17,0,0,1,1.058-1.181,1.126,1.126,0,0,1,1.177,1.009" transform="translate(-694.309 -633.731)" fill="#ffa412"/>
                <g id="Group_110976" data-name="Group 110976" transform="translate(117.454 131.243)" opacity="0.5">
                  <g id="Group_110975" data-name="Group 110975">
                    <g id="Group_110974" data-name="Group 110974" clip-path="url(#clip-path-3)">
                      <path id="Path_88810" data-name="Path 88810" d="M814.275,767.468a1.11,1.11,0,0,1-.512.9,1.03,1.03,0,0,1-1.184-.137h0a.912.912,0,0,1-.238-.616,1.013,1.013,0,0,1,.916-1.023.975.975,0,0,1,1.019.874" transform="translate(-812.34 -766.594)" fill="#ffb93e"/>
                    </g>
                  </g>
                </g>
                <path id="Path_88811" data-name="Path 88811" d="M805.481,753.994a.722.722,0,0,1-.192-.7.579.579,0,0,1,.131-.247.587.587,0,0,1,.373-.188h0a.589.589,0,0,1,.461.153.654.654,0,0,1,.085.882.63.63,0,0,1-.861.1" transform="translate(-689.023 -623.963)" fill="#ffa412"/>
                <g id="Group_110979" data-name="Group 110979" transform="translate(116.258 128.894)" opacity="0.5">
                  <g id="Group_110978" data-name="Group 110978">
                    <g id="Group_110977" data-name="Group 110977" clip-path="url(#clip-path-4)">
                      <path id="Path_88812" data-name="Path 88812" d="M805.539,753.86a.621.621,0,0,1-.178-.553.577.577,0,0,1,.505-.435h0a.51.51,0,0,1,.344.135.566.566,0,0,1,.074.764.546.546,0,0,1-.746.088" transform="translate(-805.353 -752.872)" fill="#ffb93e"/>
                    </g>
                  </g>
                </g>
                <path id="Path_88813" data-name="Path 88813" d="M830.077,755.534a.89.89,0,0,1-.859.261.709.709,0,0,1-.554-.607h0a.727.727,0,0,1,.172-.574.807.807,0,0,1,1.085-.136.777.777,0,0,1,.156,1.058" transform="translate(-708.41 -625.18)" fill="#ffa412"/>
                <g id="Group_110982" data-name="Group 110982" transform="translate(120.254 129.327)" opacity="0.5">
                  <g id="Group_110981" data-name="Group 110981">
                    <g id="Group_110980" data-name="Group 110980" clip-path="url(#clip-path-5)">
                      <path id="Path_88814" data-name="Path 88814" d="M829.923,756.449a.765.765,0,0,1-.675.238.71.71,0,0,1-.554-.607h0a.63.63,0,0,1,.155-.428.7.7,0,0,1,.939-.118.673.673,0,0,1,.135.916" transform="translate(-828.693 -755.4)" fill="#ffb93e"/>
                    </g>
                  </g>
                </g>
                <path id="Path_88815" data-name="Path 88815" d="M829.385,777.832a1.134,1.134,0,0,1-.911.693.9.9,0,0,1-.931-.48h0a.927.927,0,0,1-.048-.762,1.028,1.028,0,0,1,1.236-.644.989.989,0,0,1,.655,1.194" transform="translate(-707.397 -643.635)" fill="#ffa412"/>
                <g id="Group_110985" data-name="Group 110985" transform="translate(120.09 133.229)" opacity="0.5">
                  <g id="Group_110984" data-name="Group 110984">
                    <g id="Group_110983" data-name="Group 110983" clip-path="url(#clip-path-6)">
                      <path id="Path_88816" data-name="Path 88816" d="M829.424,779.27a.976.976,0,0,1-.7.584.9.9,0,0,1-.931-.48h0a.8.8,0,0,1-.005-.58.89.89,0,0,1,1.07-.557.857.857,0,0,1,.567,1.034" transform="translate(-827.735 -778.193)" fill="#ffb93e"/>
                    </g>
                  </g>
                </g>
                <path id="Path_88817" data-name="Path 88817" d="M824.65,794.319a.689.689,0,0,1-.238.653.557.557,0,0,1-.239.12.563.563,0,0,1-.395-.06h0a.562.562,0,0,1-.275-.374.625.625,0,0,1,.42-.735.6.6,0,0,1,.727.4" transform="translate(-704.127 -657.989)" fill="#ffa412"/>
                <g id="Group_110988" data-name="Group 110988" transform="translate(119.446 136.098)" opacity="0.5">
                  <g id="Group_110987" data-name="Group 110987">
                    <g id="Group_110986" data-name="Group 110986" clip-path="url(#clip-path-7)">
                      <path id="Path_88818" data-name="Path 88818" d="M824.984,795.31a.594.594,0,0,1-.167.529.55.55,0,0,1-.634.06h0a.49.49,0,0,1-.193-.3.541.541,0,0,1,.364-.636.521.521,0,0,1,.63.343" transform="translate(-823.978 -794.955)" fill="#ffb93e"/>
                    </g>
                  </g>
                </g>
                <path id="Path_88819" data-name="Path 88819" d="M841.936,763.633a.6.6,0,0,1,.128.593.485.485,0,0,1-.12.2.49.49,0,0,1-.319.139h0a.492.492,0,0,1-.377-.148.545.545,0,0,1-.031-.738.525.525,0,0,1,.721-.046" transform="translate(-718.71 -632.794)" fill="#ffa412"/>
                <g id="Group_110991" data-name="Group 110991" transform="translate(122.494 130.856)" opacity="0.5">
                  <g id="Group_110990" data-name="Group 110990">
                    <g id="Group_110989" data-name="Group 110989" clip-path="url(#clip-path-8)">
                      <path id="Path_88820" data-name="Path 88820" d="M842.516,764.443a.517.517,0,0,1,.123.468.483.483,0,0,1-.12.2.491.491,0,0,1-.319.139h0a.424.424,0,0,1-.28-.128.473.473,0,0,1-.027-.639.455.455,0,0,1,.625-.04" transform="translate(-841.779 -764.336)" fill="#ffb93e"/>
                    </g>
                  </g>
                </g>
                <path id="Path_88821" data-name="Path 88821" d="M803.661,793.028a1.134,1.134,0,0,1-1.018-.523.9.9,0,0,1,.032-1.046h0a.927.927,0,0,1,.667-.372,1.028,1.028,0,0,1,1.113.837.989.989,0,0,1-.795,1.106" transform="translate(-686.725 -655.646)" fill="#ffa412"/>
                <g id="Group_110994" data-name="Group 110994" transform="translate(115.768 135.554)" opacity="0.5">
                  <g id="Group_110993" data-name="Group 110993">
                    <g id="Group_110992" data-name="Group 110992" clip-path="url(#clip-path-9)">
                      <path id="Path_88822" data-name="Path 88822" d="M803.473,793.458a.977.977,0,0,1-.83-.38.905.905,0,0,1,.032-1.047h0a.8.8,0,0,1,.521-.254.89.89,0,0,1,.964.725.857.857,0,0,1-.689.958" transform="translate(-802.493 -791.772)" fill="#ffb93e"/>
                    </g>
                  </g>
                </g>
                <path id="Path_88823" data-name="Path 88823" d="M775.668,749.96l10.789-3.71a2.615,2.615,0,0,1-1.116,2.127c-1.417.788-8.548,3.191-8.548,3.191Z" transform="translate(-664.493 -618.49)" fill="#b0f1bd"/>
                <path id="Path_88824" data-name="Path 88824" d="M737.292,766.6l6.089-1.864a.787.787,0,0,1,.869.293l.655.91a.787.787,0,0,1-.441,1.221c-1.676.433-4.74,1.216-5.544,1.354-1.146.2-2.167-.151-2.185-1.153a.785.785,0,0,1,.557-.762" transform="translate(-632.224 -633.78)" fill="#292929"/>
                <path id="Path_88825" data-name="Path 88825" d="M702.839,632.524a8.281,8.281,0,0,1-3.148,4.714,6.983,6.983,0,0,1-1.674-.675c-2.291-1.4-6.05-5.686-8.5-9.971a3.076,3.076,0,0,1-.174-.315,15.35,15.35,0,0,1-2.238-6.331,9.022,9.022,0,0,1,.3-2.867,7.32,7.32,0,0,1,1.294-2.589,1.3,1.3,0,0,1,.245-.3,6.052,6.052,0,0,1,1.663-1.416c.419-.177.875.034,1.345.541v.017a8.059,8.059,0,0,1,1.207,1.786c.019.017.036.034.036.051.087.158.175.332.279.526a.4.4,0,0,1,.07.121c.192.4.385.822.577,1.26,2.152,4.688,4.443,11.787,6.35,13.905a10.5,10.5,0,0,0,2.372,1.541" transform="translate(-591.081 -507.816)" fill="#fff"/>
                <path id="Path_88826" data-name="Path 88826" d="M606.416,850.088l-2.311.861s-10.039-13.923-11.275-26.173a18.606,18.606,0,0,1,.33-6.263s-.1-.56-.27-1.551c-.079-.462-.177-1.019-.289-1.657-.326-1.87-.775-4.429-1.289-7.342-1.181-6.7-2.712-15.275-3.9-21.575l.623-.2,6.738-2.174,1.392-4.423,5.018-1.321s1.121,2.192,2.123,12.55c.185,1.359.353,2.857.479,4.482a88.7,88.7,0,0,1-.477,18.143q-.345,2.7-.881,5.568a24.832,24.832,0,0,0-.192,5.5c.505,10.014,4.181,25.576,4.181,25.576" transform="translate(-508.467 -645.029)" fill="#5e5e5e"/>
                <path id="Path_88827" data-name="Path 88827" d="M603.785,795.3l-10.895,21.66c-.079-.462-.177-1.019-.289-1.657-.327-1.87-.775-4.429-1.289-7.342-1.181-6.7-2.711-15.275-3.9-21.575l.622-.2,6.738-2.174,1.393-4.423,5.017-1.321s1.121,2.192,2.123,12.55c.185,1.359.353,2.857.479,4.482" transform="translate(-508.466 -645.029)" fill="#3b3b3b"/>
                <path id="Path_88828" data-name="Path 88828" d="M550.244,768.854l-.252-2.163c-4.225,1.123-15.516-3.136-15.516-3.136s-4.093,3.6-3.556,12.223c.262,4.21.741,22.1,1.242,27.393.181,1.919.339,3.284.4,3.829a.011.011,0,0,1,0,.005.753.753,0,0,1-.123.469,24.855,24.855,0,0,0-1.847,3.885c-4.912,13.09.757,29.21.757,29.21l1.471-.593s3.226-17.94,5.847-25.865a15.7,15.7,0,0,1,1.262-3.032,34.231,34.231,0,0,0,3.157-8.419,207.078,207.078,0,0,0,4.247-22.335c.134.006,2.906-11.471,2.906-11.471" transform="translate(-459.719 -632.832)" fill="#5e5e5e"/>
                <path id="Path_88829" data-name="Path 88829" d="M634.038,565.136a13.152,13.152,0,0,1-4.866,1.14c-7.265.4-8.914-5.97-9.214-10.2a6.1,6.1,0,0,1,2.493-.315c.515.028,1.053.081,1.5.136.889-.464,2.485-2.719,3.408-6.491l.313.145,5.242,2.465s-.557,1.706-.968,3.338a6.645,6.645,0,0,0-.358,2.857c.413.168.66.274.66.274a.015.015,0,0,0,0,.006,35.976,35.976,0,0,1,1.793,6.644" transform="translate(-535.44 -455.349)" fill="#ffb27d"/>
                <path id="Path_88830" data-name="Path 88830" d="M560.134,600.249c-.055.145-.115.287-.181.432-1.84,3.962-2.764,40.547-2.764,40.547.485,2.951-23.231,3.3-28.594-1.444,0,0,2.183-28.813,10.56-50.573l2.407,2.052c.4-.3.909-.42.871-.792-.017-.175-.04-.351-.066-.526a14.992,14.992,0,0,0-1.053-3.516c1.949-.789,6.912-.183,6.912-.183l3.721,2.808,3.916-.495a17.114,17.114,0,0,1,4.826,2.766c-1.874,1.215.9,5.08-.554,8.924" transform="translate(-459.719 -485.695)" fill="#fff"/>
                <path id="Path_88831" data-name="Path 88831" d="M670.233,552.727s-.557,1.7-.968,3.338c-3.064-.855-3.994-4.076-4.274-5.8Z" transform="translate(-572.764 -456.057)" fill="#ed985f"/>
                <path id="Path_88832" data-name="Path 88832" d="M668.778,510.656s-7.33-1.7-6.2-6.245.94-7.831,5.667-6.94,5.2,2.851,5.2,4.461-2.725,9.049-4.661,8.725" transform="translate(-570.663 -412.181)" fill="#ffb27d"/>
                <path id="Path_88833" data-name="Path 88833" d="M664.931,495.336c-.788-1.649-1.716-1.561-2.3-1.268a5.258,5.258,0,0,0-6.823-.583,8.952,8.952,0,0,1-4.119,4.425s1.126,1.153,4.39,1.128a5.373,5.373,0,0,0,2.911-1.1,17.55,17.55,0,0,1-3.822,2.851c4.086-.782,6.826-5.512,7.106-6.014a5.891,5.891,0,0,1,1.064,2.518c.076,1.249-.354,3.673.361,3.765,0,0,2.408-3.251,1.227-5.724" transform="translate(-561.743 -408.168)" fill="#2c3a64"/>
                <path id="Path_88834" data-name="Path 88834" d="M538.006,1188.657H526.366a6.394,6.394,0,0,1,.329-3.12c.583-1.292,1.5-1.879,1.277-3.441a4.192,4.192,0,0,0,3.628,1.388,12.764,12.764,0,0,0,2.02,2.618c.761.547,4.153.352,4.387,2.555" transform="translate(-457.819 -979.718)" fill="#292929"/>
                <path id="Path_88835" data-name="Path 88835" d="M683.708,1191.185H672.068a4.839,4.839,0,0,1,.329-3.12,2.243,2.243,0,0,0-.084-2.679,4.526,4.526,0,0,0,1.961.369,4.1,4.1,0,0,0,1.731-.609,41.868,41.868,0,0,0,3.317,3.484c.761.547,4.153.352,4.387,2.555" transform="translate(-578.527 -982.246)" fill="#292929"/>
                <path id="Path_88836" data-name="Path 88836" d="M745.709,766.188a11.846,11.846,0,0,1,2.6-.771c.951-.171,2.187-.326,2.1,0s-2.088.932-2.147,1.073a15.039,15.039,0,0,1-2.558-.3" transform="translate(-639.663 -634.217)" fill="#ffb27d"/>
                <path id="Path_88837" data-name="Path 88837" d="M641.269,658.112a.609.609,0,1,1,.453.806.658.658,0,0,1-.453-.806" transform="translate(-553.09 -544.96)" fill="#3b3b3b"/>
                <path id="Path_88838" data-name="Path 88838" d="M682.914,662.242a.609.609,0,1,1,.453.806.658.658,0,0,1-.453-.806" transform="translate(-587.605 -548.383)" fill="#3b3b3b"/>
                <path id="Path_88839" data-name="Path 88839" d="M636.1,706.837a.609.609,0,1,1,.452.806.657.657,0,0,1-.452-.806" transform="translate(-548.81 -585.343)" fill="#233862"/>
                <path id="Path_88840" data-name="Path 88840" d="M677.749,710.966a.609.609,0,1,1,.452.806.657.657,0,0,1-.452-.806" transform="translate(-583.324 -588.765)" fill="#3b3b3b"/>
                <path id="Path_88841" data-name="Path 88841" d="M590.823,645.763s.838,24.056,18.656,25.7l.272-5.14-9.689-7.708Z" transform="translate(-511.293 -535.207)" fill="#d2f9da"/>
                <path id="Path_88842" data-name="Path 88842" d="M735.814,769c-.389.3-3.49,1.51-4.671,1.139-.659-.207-2.954-.775-3.882-1-.367-.07-1.689-.328-1.689-.328l1-2.9a.757.757,0,0,1,.122.035,9.432,9.432,0,0,0,2.064.634c1.177.176,2.646-.564,3.41-.145,1.618.887,3.851-.012,4.365.461.388.356.248,1.37-.718,2.11" transform="translate(-622.973 -634.779)" fill="#ffb27d"/>
                <path id="Path_88843" data-name="Path 88843" d="M675.922,743.489l-.61,2.238s-.769-.136-1.99-.362c-.362-.068-.565-.113-.565-.113-.995-.2-2.171-.452-3.436-.746H669.3c-1.763-.429-3.73-.927-5.494-1.469-.407-.113-.814-.249-1.2-.384-.271-.091-.52-.181-.769-.271l3.708-4.906c.271.2.565.384.859.565,1.514.972,3.233,1.967,4.792,2.849.972.565,1.9,1.063,2.668,1.492,1.243.678,2.057,1.108,2.057,1.108" transform="translate(-570.15 -611.217)" fill="#ffb27d"/>
                <path id="Path_88844" data-name="Path 88844" d="M605.135,614.134a12.174,12.174,0,0,1-2.6,5.01c-.408-.125-.808-.254-1.194-.385a18.423,18.423,0,0,1-3.568-1.592,1.916,1.916,0,0,1-.245-.175c-2.046-1.486-4.477-5.858-6.365-10.546-.264-.647-.509-1.294-.753-1.924a48.035,48.035,0,0,1-1.993-6.646,18.568,18.568,0,0,1-.473-3.166,7.473,7.473,0,0,1-.017-.892c.034-5.073,2.553-5.773,2.553-5.773.053-.017.106-.034.175-.051.438-.07.892.226,1.365.8a15.8,15.8,0,0,1,1.871,3.3c1,2.256,2.048,5.177,3.027,8.081.541,1.592,1.067,3.184,1.59,4.653.3.892.6,1.731.875,2.5a24.283,24.283,0,0,0,1.469,3.41A8.531,8.531,0,0,0,603,612.69c.63.457,1.357.945,2.135,1.444" transform="translate(-508.884 -487.319)" fill="#fff"/>
                <path id="Path_88845" data-name="Path 88845" d="M610.039,435.93s.458-4-2.136-6.338a5.632,5.632,0,0,0-8.049.313c-.605.665-4.053-.007-6.014,2.08s-1.618,5.4-.945,6.917c.617,1.392-1.449,4.371,1.344,6.611,3.274,2.625,8.271.4,8.271.4s3.717-9.948,7.528-9.979" transform="translate(-512.573 -354.767)" fill="#8ddf9f"/>
                <path id="Path_88846" data-name="Path 88846" d="M648.319,471.1s-10.755.949-10.173,9.288l-4.355-6.191s.319-7.956,10.39-8.066Z" transform="translate(-546.905 -386.33)" fill="#fff"/>
                <path id="Path_88847" data-name="Path 88847" d="M639.327,579.533a10.811,10.811,0,0,1,2.117-1.525s2.615,2.978,2.615,3.546a4.6,4.6,0,0,1-.6,1.592s-2.012-.374-4.132-3.614" transform="translate(-551.493 -479.052)" fill="#d2f9da"/>
                <path id="Path_88848" data-name="Path 88848" d="M647.77,589.8s1.019,1.207.526,2.163a14.416,14.416,0,0,1-8.97,2.581,3.663,3.663,0,0,1,1.372-1.274c.851-.4,6.11-2.07,7.071-3.471" transform="translate(-551.493 -488.822)" fill="#a2ecb2"/>
                <path id="Path_88849" data-name="Path 88849" d="M987,1184.57a3.908,3.908,0,0,1-.5,2.274H972.249a2.458,2.458,0,0,1,2.157-1.529,10.81,10.81,0,0,0,5.767-2.669,4.292,4.292,0,0,0,1.117-2.022c.671-2.985,5.544.914,5.544.914a24.125,24.125,0,0,1,.165,3.031" transform="translate(-827.418 -977.566)" fill="#292929"/>
                <path id="Path_88850" data-name="Path 88850" d="M1114.1,1184.57a3.906,3.906,0,0,1-.5,2.274h-14.252a2.459,2.459,0,0,1,2.157-1.529,10.81,10.81,0,0,0,5.767-2.669,4.291,4.291,0,0,0,1.117-2.022c.671-2.985,5.544.914,5.544.914a24.184,24.184,0,0,1,.165,3.031" transform="translate(-932.761 -977.566)" fill="#292929"/>
                <path id="Path_88851" data-name="Path 88851" d="M1017.776,875.47c1.593.508,4.637,2.059,6.57,1.33,1.25-.471,8.235-20.677,8.688-29.516a22.573,22.573,0,0,1,.358-2.633c.414-2.281,1.137-5.415,1.971-8.874,2.235-9.268,5.259-20.861,5.193-24.566-.1-5.751-17.14-1.205-17.14-1.205a61.556,61.556,0,0,0-1.406,11.548c-.463,13.558-1.735,36.46-5.195,52.365a1.366,1.366,0,0,0,.96,1.551" transform="translate(-864.332 -669.917)" fill="#3b3b3b"/>
                <path id="Path_88852" data-name="Path 88852" d="M1091.632,815.366l8.348,64.292s5.4,1.494,8.478.731c0,0,1.85-34.271,1.631-42.664s1.892-22.461-.482-24.012-17.974,1.653-17.974,1.653" transform="translate(-926.363 -674.052)" fill="#5e5e5e"/>
                <path id="Path_88853" data-name="Path 88853" d="M1020.783,583.366s-7.831,1.338-9.618,4.094c-2.556,3.942-7.82,21.036-8.44,23.119-2.53,8.513,9.1,12.415,10.28,8.91.982-2.91,3.386-21.135,5.133-26.789Z" transform="translate(-852.379 -483.492)" fill="#fff"/>
                <path id="Path_88854" data-name="Path 88854" d="M1016.795,641.4a42.427,42.427,0,0,0,13.809,4.021c.824.212,14.856.212,20.8-1.829.124-.042-.311-12.617-.814-25.59,0-.021,0-.04,0-.061-.051-1.317-.1-2.643-.154-3.957-.023-.565-.044-1.129-.066-1.691-.154-3.87-.308-7.614-.446-10.9-.273-6.449-.493-11.123-.556-11.493-.218-1.262-.422-2.338-.643-3.27-.647-2.72-1.452-4.209-3.207-5.49-.171-.131-1.573-.839-2.811-1.454-1.025-.509-1.936-.955-1.936-.955h0s-13.507.385-14.8,3.773-9.167,58.895-9.167,58.895" transform="translate(-864.338 -479.651)" fill="#fff"/>
                <path id="Path_88855" data-name="Path 88855" d="M1109.3,547.092c.707.139,1.618.792,2.479.729,1.688-.122,3.446-1.258,4.935-2.239a21.334,21.334,0,0,1-1.58-5.581c-.009-.066-.015-.13-.022-.191a5.684,5.684,0,0,1-.026-1.279h-5.408s-1.479.676-1.479,1.143q0,.375-.007.717c-.011.622-.036,1.165-.068,1.631a14.814,14.814,0,0,1-.277,2.233s-.661,2.423,1.452,2.837" transform="translate(-939.723 -446.333)" fill="#ffb27d"/>
                <path id="Path_88856" data-name="Path 88856" d="M1109.941,546.849a7.474,7.474,0,0,0,7.009-2.022c.076-.082.115-.131.115-.131-.043-.022-.089-.041-.136-.061-1.525-.618-4.986-.126-6.919.582-.011.622-.036,1.165-.068,1.631" transform="translate(-941.537 -451.159)" fill="#e2915a"/>
                <path id="Path_88857" data-name="Path 88857" d="M1108.267,485.292c-.732,3.941-5.817,3.811-8.015,3.564-.618-.069-1.007-.148-1.007-.148-.7-.186-1.086-1.285-1.267-2.723a22.411,22.411,0,0,1,.575-8.1c.724-1.608,2.087-3.348,7.208-2.093s3.445,4.446,2.506,9.5" transform="translate(-931.515 -393.984)" fill="#ffb27d"/>
                <path id="Path_88858" data-name="Path 88858" d="M1094.931,460a11.7,11.7,0,0,1,3.531-2.882c2.9-1.566,6.6.049,6.617.056,4.182,1.839,1.055,12.227-.222,11.8-1-.332.244-2.041-.191-2.432-.525-.471-1.262.1-1.5.541a.642.642,0,0,1-.918.2c-1.3-.823-.456-2.469-1.7-3.476s-3.768-.162-5.634-.964c-2.443-.91-.512-2.118.015-2.848" transform="translate(-928.083 -378.293)" fill="#233862"/>
                <path id="Path_88859" data-name="Path 88859" d="M1105.689,535.842a2.157,2.157,0,0,1-1.752.422c-.642-.112-1-.947-1-.947a4.845,4.845,0,0,1,2.753.525" transform="translate(-935.731 -443.644)" fill="#fff"/>
                <path id="Path_88860" data-name="Path 88860" d="M1144.755,638.354a.7.7,0,1,0-.7.7.7.7,0,0,0,.7-.7" transform="translate(-969.227 -528.484)" fill="#3b3b3b"/>
                <path id="Path_88861" data-name="Path 88861" d="M1096.138,634.254a.7.7,0,1,0-.7.7.7.7,0,0,0,.7-.7" transform="translate(-928.933 -525.086)" fill="#3b3b3b"/>
                <path id="Path_88862" data-name="Path 88862" d="M1139.535,687.147a.7.7,0,1,0-.7.7.7.7,0,0,0,.7-.7" transform="translate(-964.901 -568.924)" fill="#3b3b3b"/>
                <path id="Path_88863" data-name="Path 88863" d="M1090.919,683.046a.7.7,0,1,0-.7.7.7.7,0,0,0,.7-.7" transform="translate(-924.608 -565.525)" fill="#3b3b3b"/>
                <path id="Path_88864" data-name="Path 88864" d="M1136.552,734.814a.7.7,0,1,0-.7.7.7.7,0,0,0,.7-.7" transform="translate(-962.428 -608.43)" fill="#3b3b3b"/>
                <path id="Path_88865" data-name="Path 88865" d="M1087.936,730.712a.7.7,0,1,0-.7.7.7.7,0,0,0,.7-.7" transform="translate(-922.136 -605.03)" fill="#3b3b3b"/>
                <path id="Path_88866" data-name="Path 88866" d="M1132.7,700.576a51.049,51.049,0,0,0,13.783,3.238c-.051-1.317-.1-2.644-.154-3.957q-.034-.849-.066-1.691c-.154-3.87-.308-7.614-.446-10.9-1.759-2.854-3.23-4.923-3.23-4.923s.14,7.836-3.159,10.267c-8.73,6.432-6.728,7.965-6.728,7.965" transform="translate(-960.236 -565.525)" fill="#d2f9da"/>
                <path id="Path_88867" data-name="Path 88867" d="M1143.5,614.509s16.862,1.4,18.286-2.739c2.73-7.938-4.43-27.2-6.342-29.29-2.232-2.442-6.3-3.3-8.553-3.593l-.271-.035c-.791-.094-1.3-.114-1.326-.115h0s.176.567.471,1.528c.115.372.248.8.394,1.285,1.382,4.523,6.076,17.031,7.467,23.085.886,3.853-10.5,6.482-10.711,6.5-.015,0,.586,3.376.586,3.376" transform="translate(-968.863 -479.656)" fill="#fff"/>
                <path id="Path_88868" data-name="Path 88868" d="M1122.186,419.859s-.458-4,2.136-6.338a5.632,5.632,0,0,1,8.049.313c.605.665,4.053-.007,6.014,2.08s1.618,5.4.945,6.918c-.617,1.392,1.449,4.371-1.344,6.611-3.274,2.625-8.271.4-8.271.4s-3.716-9.948-7.528-9.979" transform="translate(-951.66 -341.448)" fill="#8ddf9f"/>
                <path id="Path_88869" data-name="Path 88869" d="M1099.279,455.031s10.755.949,10.173,9.288l4.355-6.191s-.319-7.956-10.391-8.066Z" transform="translate(-932.7 -373.01)" fill="#fff"/>
                <path id="Path_88870" data-name="Path 88870" d="M1137.708,568.529a12.164,12.164,0,0,0-1.838-2.292s-3.735,2.443-3.906,3.059a5.175,5.175,0,0,0,.172,1.908s2.295.2,5.572-2.676" transform="translate(-959.751 -469.296)" fill="#d2f9da"/>
                <path id="Path_88871" data-name="Path 88871" d="M1103.134,571.322s-1.394,1.1-1.064,2.27a16.231,16.231,0,0,0,9.321,4.853,4.125,4.125,0,0,0-1.229-1.712c-.849-.636-6.28-3.65-7.028-5.411" transform="translate(-934.971 -473.51)" fill="#a2ecb2"/>
                <path id="Path_88872" data-name="Path 88872" d="M1123.612,769.282a4.772,4.772,0,0,0-2.386.165c-.767.435-2.681.7-2.6,1.142s2.477.633,3.109.415a7.846,7.846,0,0,0,1.873-1.722" transform="translate(-948.736 -637.51)" fill="#ffb27d"/>
                <path id="Path_88873" data-name="Path 88873" d="M1062.321,759.225l-8.744-2.61a2.006,2.006,0,0,0,.924,1.651c1.151.582,6.93,2.268,6.93,2.268Z" transform="translate(-894.823 -627.081)" fill="#b0f1bd"/>
                <path id="Path_88874" data-name="Path 88874" d="M1102.389,769.34l-6.136-1.7a.787.787,0,0,0-.861.315l-.631.928a.787.787,0,0,0,.473,1.209c1.687.389,4.77,1.091,5.578,1.208,1.151.166,2.162-.208,2.154-1.21a.786.786,0,0,0-.577-.747" transform="translate(-928.842 -636.191)" fill="#292929"/>
                <path id="Path_88875" data-name="Path 88875" d="M1122.58,769.9a1.351,1.351,0,0,1,.174,2.135c-1.052.953-2.411,2.173-2.745,2.415a2.3,2.3,0,0,1-2.937-.374c-.288-.391.076-1.678.9-2.457s4.267-1.938,4.267-1.938Z" transform="translate(-947.366 -637.911)" fill="#ffb27d"/>
                <path id="Path_88876" data-name="Path 88876" d="M1028.686,773.784a6.584,6.584,0,0,0,.292,1.049c.884,2.328,2.725,1.826,4.524,1.826,2.03,0,2.026-1.36,2.026-3.2a3.049,3.049,0,0,0-3.154-3.3c-2.03,0-4.046,1.818-3.687,3.62" transform="translate(-874.158 -638.31)" fill="#e09927"/>
                <path id="Path_88877" data-name="Path 88877" d="M1044.488,773.707a4.058,4.058,0,0,0-3.149-3.854,2.563,2.563,0,0,0-3.374,2.539,4.1,4.1,0,0,0,3.438,3.852,2.464,2.464,0,0,0,3.085-2.537" transform="translate(-881.883 -637.957)" fill="#ffa412"/>
                <path id="Path_88878" data-name="Path 88878" d="M1045.113,774.4a3.855,3.855,0,0,0-2.992-3.662,2.435,2.435,0,0,0-3.206,2.412,3.893,3.893,0,0,0,3.266,3.66,2.341,2.341,0,0,0,2.931-2.41" transform="translate(-882.671 -638.696)" fill="#ffda9f"/>
                <path id="Path_88879" data-name="Path 88879" d="M1050.29,775.338l.5-1.892a.3.3,0,0,0-.225-.34,3.974,3.974,0,0,0-1.478-.049.2.2,0,0,0-.115.322l1.16,1.955c.042.07.137.072.155,0" transform="translate(-890.976 -640.67)" fill="#ffb93e"/>
                <path id="Path_88880" data-name="Path 88880" d="M1059.135,786.764l1.885,1.178a.2.2,0,0,0,.328-.111,3.8,3.8,0,0,0,.068-.7,4.744,4.744,0,0,0-.069-.8.28.28,0,0,0-.322-.231l-1.892.5c-.068.018-.066.115,0,.158" transform="translate(-899.386 -651.514)" fill="#ffb93e"/>
                <path id="Path_88881" data-name="Path 88881" d="M1058.116,777.694l1.864-.5a.214.214,0,0,0,.089-.344,5.349,5.349,0,0,0-.485-.622,6.018,6.018,0,0,0-.629-.6.206.206,0,0,0-.34.061l-.618,1.869a.1.1,0,0,0,.118.127" transform="translate(-898.483 -642.794)" fill="#ffb93e"/>
                <path id="Path_88882" data-name="Path 88882" d="M1057.643,790.555l.577,2.082a.285.285,0,0,0,.344.208,3.125,3.125,0,0,0,.593-.287,3.39,3.39,0,0,0,.56-.444.25.25,0,0,0-.076-.37l-1.877-1.267c-.067-.045-.141,0-.12.079" transform="translate(-898.189 -655.13)" fill="#ffb93e"/>
                <path id="Path_88883" data-name="Path 88883" d="M1043.54,777.264l-1.259-1.865a.248.248,0,0,0-.372-.077,3.046,3.046,0,0,0-.4.513,3.618,3.618,0,0,0-.317.658.281.281,0,0,0,.2.342l2.077.554c.074.02.12-.057.074-.125" transform="translate(-884.544 -642.538)" fill="#ffb93e"/>
                <path id="Path_88884" data-name="Path 88884" d="M1043.489,786.914l-2.052-.357a.2.2,0,0,0-.226.251,4.8,4.8,0,0,0,.234.722,5.792,5.792,0,0,0,.387.76.244.244,0,0,0,.363.09l1.361-1.312c.049-.047.008-.142-.067-.155" transform="translate(-884.568 -651.894)" fill="#ffb93e"/>
                <path id="Path_88885" data-name="Path 88885" d="M1050.089,790.386l-1.107,1.513a.271.271,0,0,0,.119.375,4.864,4.864,0,0,0,.693.317,4.959,4.959,0,0,0,.785.211.188.188,0,0,0,.218-.248l-.553-2.116c-.02-.076-.115-.109-.155-.054" transform="translate(-890.984 -655.047)" fill="#ffb93e"/>
                <path id="Path_88886" data-name="Path 88886" d="M1141.985,767.964a3.574,3.574,0,0,0,.585,3.376l3.325-1.323-.917-1.676Z" transform="translate(-967.936 -636.487)" fill="#fff"/>
                <path id="Path_88887" data-name="Path 88887" d="M1002.356,750.8s-.184,6.23,2.721,7.531a5.794,5.794,0,0,1,.573-4.136c1.166-2.511-3.294-3.394-3.294-3.394" transform="translate(-852.369 -622.264)" fill="#fff"/>
                <path id="Path_88888" data-name="Path 88888" d="M1016.286,771.725s2.971-.6,2.31,0-1.3.973-1.367,1.5c-.257,1.944,1.642,4.186.506,4.113s-2.686-1.483-3.251-2.428a2.244,2.244,0,0,1,1.8-3.185" transform="translate(-862.227 -639.384)" fill="#ffb27d"/>
                <rect id="Rectangle_40709" data-name="Rectangle 40709" width="95.359" height="6.097" transform="translate(98.282 138.35)" fill="#4d4d4d"/>
                <rect id="Rectangle_40710" data-name="Rectangle 40710" width="95.359" height="3.049" transform="translate(98.282 180.047)" fill="#4d4d4d"/>
                <rect id="Rectangle_40711" data-name="Rectangle 40711" width="7.783" height="68.539" transform="translate(98.282 140.74)" fill="#4d4d4d"/>
                <rect id="Rectangle_40712" data-name="Rectangle 40712" width="7.782" height="68.539" transform="translate(186.01 141.388)" fill="#4d4d4d"/>
                <path id="Path_88889" data-name="Path 88889" d="M792.606,947.06H788.53a.8.8,0,0,1,0-1.6h4.076a.8.8,0,1,1,0,1.6" transform="translate(-674.488 -783.591)" fill="#6bcb80"/>
                <path id="Path_88890" data-name="Path 88890" d="M959.047,947.06h-4.076a.8.8,0,0,1,0-1.6h4.076a.8.8,0,1,1,0,1.6" transform="translate(-812.434 -783.591)" fill="#6bcb80"/>
                <path id="Path_88891" data-name="Path 88891" d="M834.508,938.958H814.589a3.371,3.371,0,0,1-3.371-3.371v-19.97h26.661v19.97a3.371,3.371,0,0,1-3.371,3.371" transform="translate(-693.956 -758.861)" fill="#a2ecb2"/>
                <path id="Path_88892" data-name="Path 88892" d="M835.1,915.857H808.224a.489.489,0,1,1,0-.977H835.1a.489.489,0,0,1,0,.977" transform="translate(-691.07 -758.25)" fill="#6bcb80"/>
                <path id="Path_88893" data-name="Path 88893" d="M1000.636,979.675h-2.808a.553.553,0,1,1,0-1.106h2.808a.553.553,0,0,1,0,1.106" transform="translate(-848.16 -811.035)" fill="#6bcb80"/>
                <path id="Path_88894" data-name="Path 88894" d="M1115.326,979.675h-2.809a.553.553,0,1,1,0-1.106h2.809a.553.553,0,1,1,0,1.106" transform="translate(-943.214 -811.035)" fill="#6bcb80"/>
                <path id="Path_88895" data-name="Path 88895" d="M1029.51,974.093h-13.725a2.323,2.323,0,0,1-2.323-2.323V958.009h18.371V971.77a2.323,2.323,0,0,1-2.323,2.323" transform="translate(-861.576 -793.995)" fill="#a2ecb2"/>
                <path id="Path_88896" data-name="Path 88896" d="M1029.917,958.175H1011.4a.337.337,0,0,1,0-.674h18.519a.337.337,0,1,1,0,.674" transform="translate(-859.586 -793.574)" fill="#6bcb80"/>
                <path id="Path_88897" data-name="Path 88897" d="M288.362,714.506h-3.738a.736.736,0,0,1,0-1.472h3.738a.736.736,0,0,1,0,1.472" transform="translate(-250.602 -590.961)" fill="#6bcb80"/>
                <path id="Path_88898" data-name="Path 88898" d="M441.008,714.506H437.27a.736.736,0,1,1,0-1.472h3.738a.736.736,0,0,1,0,1.472" transform="translate(-377.115 -590.961)" fill="#6bcb80"/>
                <path id="Path_88899" data-name="Path 88899" d="M326.791,707.076H308.524a3.092,3.092,0,0,1-3.092-3.092V685.669h24.452v18.315a3.092,3.092,0,0,1-3.092,3.092" transform="translate(-268.458 -568.281)" fill="#a2ecb2"/>
                <path id="Path_88900" data-name="Path 88900" d="M327.335,685.89H302.686a.448.448,0,0,1,0-.9h24.649a.448.448,0,1,1,0,.9" transform="translate(-265.81 -567.721)" fill="#6bcb80"/>
                <g id="Group_110997" data-name="Group 110997" transform="translate(28.973 67.151)" opacity="0.69">
                  <g id="Group_110996" data-name="Group 110996" transform="translate(0 0)">
                    <g id="Group_110995" data-name="Group 110995" clip-path="url(#clip-path-10)">
                      <path id="Path_88901" data-name="Path 88901" d="M256.095,441.231s-9.559-9.133-4.87-17.739-11.963-17.149,1.169-32.191H295.3s-14.3,8.651-9.144,16.118,13.6,14.624,3.986,20.378-11.913,13.434-11.913,13.434Z" transform="translate(-247.235 -391.301)" fill="#fff"/>
                    </g>
                  </g>
                </g>
                <path id="Path_88902" data-name="Path 88902" d="M1129.648,746.02a10.674,10.674,0,0,0,21.347,0Z" transform="translate(-957.87 -618.299)" fill="#f99746"/>
                <rect id="Rectangle_40714" data-name="Rectangle 40714" width="11.009" height="1.771" transform="translate(176.563 136.55)" fill="#f99746"/>
                <path id="Path_88903" data-name="Path 88903" d="M908.588,782.56a4.374,4.374,0,0,0,8.749,0Z" transform="translate(-774.656 -648.584)" fill="#f99746"/>
                <rect id="Rectangle_40715" data-name="Rectangle 40715" width="4.512" height="0.726" transform="translate(135.893 137.595)" fill="#f99746"/>
              </g>
            </g>
          </g>
        </g>
        <rect id="Rectangle_40690" data-name="Rectangle 40690" width="96.765" height="8.961" transform="translate(68.042 219.22)" fill="#d1f6d9"/>
        <rect id="Rectangle_40697" data-name="Rectangle 40697" width="27.943" height="8.961" transform="translate(68.042 219.22)" fill="#8fdb9f"/>
        <path id="Path_88794" data-name="Path 88794" d="M0,0H243.806L233.249,34.883H0Z" transform="translate(52.75 98.564)" fill="#bbecc5"/>
        <rect id="Rectangle_40691" data-name="Rectangle 40691" width="96.765" height="8.963" transform="translate(68.042 239.49)" fill="#d1f6d9"/>
        <rect id="Rectangle_40696" data-name="Rectangle 40696" width="36.695" height="8.963" transform="translate(68.042 239.49)" fill="#6bc77e"/>
        <rect id="Rectangle_40692" data-name="Rectangle 40692" width="96.765" height="8.963" transform="translate(68.042 259.151)" fill="#d1f6d9"/>
        <rect id="Rectangle_40695" data-name="Rectangle 40695" width="13.971" height="8.963" transform="translate(68.042 259.151)" fill="#a2ecb2"/>
      </g>
    </g>
    <path id="Path_88909" data-name="Path 88909" d="M1.264,19V4.455H7a6.224,6.224,0,0,1,2.816.586A4.138,4.138,0,0,1,11.6,6.7a4.951,4.951,0,0,1,.614,2.511,4.746,4.746,0,0,1-.625,2.489A4.049,4.049,0,0,1,9.783,13.29a6.7,6.7,0,0,1-2.859.554H3.082V11.372H6.428a3.841,3.841,0,0,0,1.463-.241,1.758,1.758,0,0,0,.87-.724,2.311,2.311,0,0,0,.288-1.2,2.4,2.4,0,0,0-.288-1.222,1.825,1.825,0,0,0-.874-.756,3.653,3.653,0,0,0-1.474-.259H4.339V19Zm7.855-6.619L12.734,19H9.339L5.8,12.381Zm10,6.832a5.784,5.784,0,0,1-2.894-.685,4.636,4.636,0,0,1-1.864-1.946,6.41,6.41,0,0,1-.653-2.987,6.377,6.377,0,0,1,.653-2.955A4.823,4.823,0,0,1,16.2,8.659,5.349,5.349,0,0,1,19,7.949a5.774,5.774,0,0,1,2.013.344,4.538,4.538,0,0,1,1.634,1.033,4.707,4.707,0,0,1,1.09,1.729,6.908,6.908,0,0,1,.391,2.433v.831H14.915V12.445h6.364a2.318,2.318,0,0,0-.284-1.158,2.067,2.067,0,0,0-.785-.792,2.29,2.29,0,0,0-1.161-.288,2.329,2.329,0,0,0-1.218.316,2.267,2.267,0,0,0-.827.845,2.407,2.407,0,0,0-.305,1.175v1.783a3.034,3.034,0,0,0,.3,1.4,2.161,2.161,0,0,0,.856.909,2.585,2.585,0,0,0,1.314.32,2.861,2.861,0,0,0,.923-.142,1.916,1.916,0,0,0,.717-.426,1.853,1.853,0,0,0,.455-.7l2.8.185a3.815,3.815,0,0,1-.87,1.758A4.371,4.371,0,0,1,21.5,18.8,6.353,6.353,0,0,1,19.119,19.213Zm11.911,0a5.547,5.547,0,0,1-2.88-.714A4.748,4.748,0,0,1,26.3,16.514a6.4,6.4,0,0,1-.643-2.926,6.368,6.368,0,0,1,.65-2.944,4.806,4.806,0,0,1,1.85-1.982,5.485,5.485,0,0,1,2.855-.714,5.682,5.682,0,0,1,2.5.518,4.179,4.179,0,0,1,1.7,1.456,4.279,4.279,0,0,1,.689,2.2H33.047a2.232,2.232,0,0,0-.636-1.317,1.849,1.849,0,0,0-1.346-.5,2.026,2.026,0,0,0-1.225.38,2.454,2.454,0,0,0-.813,1.1,4.707,4.707,0,0,0-.291,1.754,4.861,4.861,0,0,0,.288,1.776,2.441,2.441,0,0,0,.813,1.115,2.157,2.157,0,0,0,2.163.17,1.822,1.822,0,0,0,.689-.621A2.367,2.367,0,0,0,33.047,15H35.9a4.472,4.472,0,0,1-.678,2.2,4.135,4.135,0,0,1-1.673,1.481A5.577,5.577,0,0,1,31.03,19.213ZM37.848,19V8.091h3.026V19Zm1.52-12.315a1.624,1.624,0,0,1-1.154-.451,1.455,1.455,0,0,1,0-2.159,1.7,1.7,0,0,1,2.308,0,1.455,1.455,0,0,1,0,2.159A1.624,1.624,0,0,1,39.368,6.685Zm3.92,16.406v-15h2.983V9.923h.135a4.011,4.011,0,0,1,.579-.9,3.047,3.047,0,0,1,.994-.767,3.389,3.389,0,0,1,1.531-.309,4.118,4.118,0,0,1,2.2.621,4.341,4.341,0,0,1,1.612,1.868,7.143,7.143,0,0,1,.6,3.121,7.245,7.245,0,0,1-.586,3.079,4.376,4.376,0,0,1-1.591,1.9,4.084,4.084,0,0,1-2.248.643,3.471,3.471,0,0,1-1.5-.291,3.064,3.064,0,0,1-1-.735,3.654,3.654,0,0,1-.6-.9h-.092v5.838Zm2.962-9.545a4.855,4.855,0,0,0,.27,1.7,2.5,2.5,0,0,0,.781,1.126,2.121,2.121,0,0,0,2.493-.007,2.52,2.52,0,0,0,.778-1.136,4.875,4.875,0,0,0,.266-1.68,4.82,4.82,0,0,0-.263-1.662,2.476,2.476,0,0,0-.774-1.122,1.962,1.962,0,0,0-1.257-.4,1.983,1.983,0,0,0-1.246.391,2.438,2.438,0,0,0-.778,1.108A4.8,4.8,0,0,0,46.25,13.545Zm14.659,5.668a5.784,5.784,0,0,1-2.894-.685,4.636,4.636,0,0,1-1.864-1.946A6.41,6.41,0,0,1,55.5,13.6a6.377,6.377,0,0,1,.653-2.955,4.823,4.823,0,0,1,1.843-1.982,5.349,5.349,0,0,1,2.795-.71,5.774,5.774,0,0,1,2.013.344,4.538,4.538,0,0,1,1.634,1.033,4.707,4.707,0,0,1,1.09,1.729,6.908,6.908,0,0,1,.391,2.433v.831H56.7V12.445h6.364a2.318,2.318,0,0,0-.284-1.158A2.067,2.067,0,0,0,62,10.5a2.29,2.29,0,0,0-1.161-.288,2.329,2.329,0,0,0-1.218.316,2.267,2.267,0,0,0-.827.845,2.407,2.407,0,0,0-.305,1.175v1.783a3.034,3.034,0,0,0,.3,1.4,2.161,2.161,0,0,0,.856.909,2.585,2.585,0,0,0,1.314.32,2.861,2.861,0,0,0,.923-.142,1.916,1.916,0,0,0,.717-.426,1.853,1.853,0,0,0,.455-.7l2.8.185a3.814,3.814,0,0,1-.87,1.758,4.371,4.371,0,0,1-1.69,1.165A6.353,6.353,0,0,1,60.909,19.213ZM72.585,4.455h3.793l4.006,9.773h.17L84.56,4.455h3.793V19H85.369V9.533h-.121l-3.764,9.4H79.453L75.689,9.5h-.121V19H72.585ZM93.935,19.206a4.508,4.508,0,0,1-1.861-.366,2.941,2.941,0,0,1-1.289-1.087,3.219,3.219,0,0,1-.472-1.8,3.18,3.18,0,0,1,.334-1.527,2.7,2.7,0,0,1,.909-.994,4.4,4.4,0,0,1,1.31-.568,9.867,9.867,0,0,1,1.545-.27q.952-.1,1.534-.188a2.143,2.143,0,0,0,.845-.266.593.593,0,0,0,.263-.526v-.043a1.313,1.313,0,0,0-.423-1.044,1.762,1.762,0,0,0-1.2-.369,2.132,2.132,0,0,0-1.3.359,1.683,1.683,0,0,0-.639.9l-2.8-.227a3.827,3.827,0,0,1,.838-1.722A4.065,4.065,0,0,1,93.15,8.343a6.187,6.187,0,0,1,2.3-.394,7.022,7.022,0,0,1,1.744.213,4.6,4.6,0,0,1,1.484.661A3.231,3.231,0,0,1,99.7,9.969a3.483,3.483,0,0,1,.376,1.673V19H97.209V17.487h-.085a3.034,3.034,0,0,1-.7.9,3.171,3.171,0,0,1-1.058.6A4.309,4.309,0,0,1,93.935,19.206Zm.866-2.088a2.516,2.516,0,0,0,1.179-.266,2.062,2.062,0,0,0,.8-.721,1.868,1.868,0,0,0,.291-1.03V13.943a1.547,1.547,0,0,1-.387.167q-.245.075-.55.135t-.611.107l-.554.082a3.743,3.743,0,0,0-.93.249,1.5,1.5,0,0,0-.618.458,1.14,1.14,0,0,0-.22.714,1.085,1.085,0,0,0,.451.941A1.921,1.921,0,0,0,94.8,17.118Zm10.653-4.425V19h-3.026V8.091h2.884v1.925h.128a3.062,3.062,0,0,1,1.214-1.509,3.693,3.693,0,0,1,2.067-.558,3.837,3.837,0,0,1,1.982.5,3.384,3.384,0,0,1,1.314,1.417,4.772,4.772,0,0,1,.469,2.191V19H109.46V12.594a2.2,2.2,0,0,0-.511-1.566,1.842,1.842,0,0,0-1.428-.565,2.15,2.15,0,0,0-1.076.263,1.807,1.807,0,0,0-.724.763A2.65,2.65,0,0,0,105.455,12.693Zm12.521,6.513a4.508,4.508,0,0,1-1.861-.366,2.941,2.941,0,0,1-1.289-1.087,3.219,3.219,0,0,1-.472-1.8,3.18,3.18,0,0,1,.334-1.527,2.7,2.7,0,0,1,.909-.994,4.4,4.4,0,0,1,1.31-.568,9.867,9.867,0,0,1,1.545-.27q.952-.1,1.534-.188a2.143,2.143,0,0,0,.845-.266.593.593,0,0,0,.263-.526v-.043a1.313,1.313,0,0,0-.423-1.044,1.762,1.762,0,0,0-1.2-.369,2.132,2.132,0,0,0-1.3.359,1.683,1.683,0,0,0-.639.9l-2.8-.227a3.827,3.827,0,0,1,.838-1.722,4.065,4.065,0,0,1,1.616-1.122,6.187,6.187,0,0,1,2.3-.394,7.022,7.022,0,0,1,1.744.213,4.6,4.6,0,0,1,1.484.661,3.231,3.231,0,0,1,1.026,1.147,3.483,3.483,0,0,1,.376,1.673V19H121.25V17.487h-.085a3.034,3.034,0,0,1-.7.9,3.171,3.171,0,0,1-1.058.6A4.309,4.309,0,0,1,117.976,19.206Zm.866-2.088a2.516,2.516,0,0,0,1.179-.266,2.062,2.062,0,0,0,.8-.721,1.868,1.868,0,0,0,.291-1.03V13.943a1.547,1.547,0,0,1-.387.167q-.245.075-.55.135t-.611.107l-.554.082a3.743,3.743,0,0,0-.93.249,1.5,1.5,0,0,0-.618.458,1.14,1.14,0,0,0-.22.714,1.085,1.085,0,0,0,.451.941A1.921,1.921,0,0,0,118.842,17.118Zm12.543,6.2a7.047,7.047,0,0,1-2.518-.4,4.211,4.211,0,0,1-1.665-1.09,3.341,3.341,0,0,1-.8-1.548l2.8-.376a1.832,1.832,0,0,0,.4.611,2,2,0,0,0,.735.458,3.163,3.163,0,0,0,1.119.174,2.652,2.652,0,0,0,1.63-.479,1.869,1.869,0,0,0,.643-1.6v-2H133.6a2.875,2.875,0,0,1-.6.859,3.006,3.006,0,0,1-1.023.661,3.931,3.931,0,0,1-1.491.256,4.437,4.437,0,0,1-2.234-.572,4.018,4.018,0,0,1-1.6-1.754,6.66,6.66,0,0,1-.593-2.994,7.064,7.064,0,0,1,.6-3.1,4.329,4.329,0,0,1,1.609-1.861,4.13,4.13,0,0,1,2.205-.618,3.412,3.412,0,0,1,1.534.309,3.037,3.037,0,0,1,1,.767,4.235,4.235,0,0,1,.586.9h.114V8.091h3V19.107a3.855,3.855,0,0,1-.682,2.33,4.127,4.127,0,0,1-1.886,1.41A7.536,7.536,0,0,1,131.385,23.318Zm.064-6.747a2.064,2.064,0,0,0,1.239-.366,2.307,2.307,0,0,0,.781-1.051,4.435,4.435,0,0,0,.273-1.644,4.661,4.661,0,0,0-.27-1.665,2.43,2.43,0,0,0-.781-1.1,2.171,2.171,0,0,0-2.5.011,2.454,2.454,0,0,0-.774,1.112,4.714,4.714,0,0,0-.263,1.641,4.5,4.5,0,0,0,.266,1.63A2.309,2.309,0,0,0,130.2,16.2,2.06,2.06,0,0,0,131.449,16.571Zm12.656,2.642a5.784,5.784,0,0,1-2.894-.685,4.636,4.636,0,0,1-1.864-1.946,6.41,6.41,0,0,1-.653-2.987,6.377,6.377,0,0,1,.653-2.955,4.823,4.823,0,0,1,1.843-1.982,5.349,5.349,0,0,1,2.795-.71A5.774,5.774,0,0,1,146,8.293a4.538,4.538,0,0,1,1.634,1.033,4.707,4.707,0,0,1,1.09,1.729,6.908,6.908,0,0,1,.391,2.433v.831H139.9V12.445h6.364a2.318,2.318,0,0,0-.284-1.158,2.067,2.067,0,0,0-.785-.792,2.29,2.29,0,0,0-1.161-.288,2.329,2.329,0,0,0-1.218.316,2.267,2.267,0,0,0-.827.845,2.407,2.407,0,0,0-.305,1.175v1.783a3.034,3.034,0,0,0,.3,1.4,2.161,2.161,0,0,0,.856.909,2.585,2.585,0,0,0,1.314.32,2.861,2.861,0,0,0,.923-.142,1.916,1.916,0,0,0,.717-.426,1.853,1.853,0,0,0,.455-.7l2.8.185a3.814,3.814,0,0,1-.87,1.758,4.371,4.371,0,0,1-1.69,1.165A6.353,6.353,0,0,1,144.105,19.213ZM151.087,19V8.091h2.884v1.925h.128A3.026,3.026,0,0,1,155.234,8.5a3.55,3.55,0,0,1,3.814,0,2.658,2.658,0,0,1,1.051,1.509h.114a2.915,2.915,0,0,1,1.211-1.5,3.754,3.754,0,0,1,2.077-.565,3.331,3.331,0,0,1,2.482.969,3.745,3.745,0,0,1,.955,2.745V19H163.92V12.26a1.786,1.786,0,0,0-.483-1.364,1.693,1.693,0,0,0-1.207-.455,1.627,1.627,0,0,0-1.286.522,2,2,0,0,0-.462,1.374V19H157.55V12.2a1.766,1.766,0,0,0-.458-1.278,1.6,1.6,0,0,0-1.2-.476,1.667,1.667,0,0,0-.906.252,1.778,1.778,0,0,0-.636.7,2.257,2.257,0,0,0-.234,1.055V19Zm23.21.213a5.784,5.784,0,0,1-2.894-.685,4.636,4.636,0,0,1-1.864-1.946,6.41,6.41,0,0,1-.653-2.987,6.377,6.377,0,0,1,.653-2.955,4.823,4.823,0,0,1,1.843-1.982,5.349,5.349,0,0,1,2.795-.71,5.774,5.774,0,0,1,2.013.344,4.538,4.538,0,0,1,1.634,1.033,4.707,4.707,0,0,1,1.09,1.729,6.908,6.908,0,0,1,.391,2.433v.831h-9.212V12.445h6.364a2.318,2.318,0,0,0-.284-1.158,2.067,2.067,0,0,0-.785-.792,2.29,2.29,0,0,0-1.161-.288,2.329,2.329,0,0,0-1.218.316,2.267,2.267,0,0,0-.827.845,2.407,2.407,0,0,0-.305,1.175v1.783a3.034,3.034,0,0,0,.3,1.4,2.161,2.161,0,0,0,.856.909,2.585,2.585,0,0,0,1.314.32,2.861,2.861,0,0,0,.923-.142,1.916,1.916,0,0,0,.717-.426,1.853,1.853,0,0,0,.455-.7l2.8.185a3.814,3.814,0,0,1-.87,1.758,4.371,4.371,0,0,1-1.69,1.165A6.352,6.352,0,0,1,174.3,19.213Zm10.007-6.52V19h-3.026V8.091h2.884v1.925h.128A3.062,3.062,0,0,1,185.5,8.506a3.693,3.693,0,0,1,2.067-.558,3.837,3.837,0,0,1,1.982.5,3.384,3.384,0,0,1,1.314,1.417,4.772,4.772,0,0,1,.469,2.191V19H188.31V12.594a2.2,2.2,0,0,0-.511-1.566,1.842,1.842,0,0,0-1.428-.565,2.15,2.15,0,0,0-1.076.263,1.807,1.807,0,0,0-.724.763A2.649,2.649,0,0,0,184.3,12.693Zm15.213-4.6v2.273h-6.57V8.091Zm-5.078-2.614h3.026v10.17a1.357,1.357,0,0,0,.128.65.7.7,0,0,0,.359.323,1.437,1.437,0,0,0,.536.092,2.359,2.359,0,0,0,.426-.039l.327-.06.476,2.251q-.227.071-.639.167a5.342,5.342,0,0,1-1,.117,4.573,4.573,0,0,1-1.914-.291,2.674,2.674,0,0,1-1.275-1.037,3.17,3.17,0,0,1-.447-1.776Z" transform="translate(836 266.206)" fill="#202020"/>
    <text id="_" data-name="%" transform="translate(939 326.206)" fill="#202020" font-size="16" font-family="Inter-Bold, Inter" font-weight="700"><tspan x="0" y="16">%</tspan></text>
    <g id="noun-recipe-980721" transform="translate(843.371 312.556)">
      <path id="Path_87967" data-name="Path 87967" d="M166.96,250.18c0-.182-.009-.446,0-.784a27.73,27.73,0,0,1,.191-2.816c.064-.584.155-1.212.264-1.877s.255-1.358.437-2.078.383-1.449.629-2.178a22.947,22.947,0,0,1,.857-2.187,21.457,21.457,0,0,1,1.085-2.087,17.412,17.412,0,0,1,1.285-1.877,17.689,17.689,0,0,1,1.421-1.6,14.91,14.91,0,0,1,1.458-1.267c.474-.364.939-.666,1.349-.929.21-.118.41-.246.592-.346s.355-.2.519-.273.3-.146.428-.21.228-.1.319-.146c.155-.064.246-.109.264-.118-.018.009-.118.036-.273.091-.091.027-.2.064-.337.109s-.282.1-.446.164-.346.137-.547.219-.41.182-.638.282a16.341,16.341,0,0,0-1.476.8,15.013,15.013,0,0,0-1.631,1.148,17.843,17.843,0,0,0-1.659,1.5,19.223,19.223,0,0,0-1.558,1.832,23.426,23.426,0,0,0-1.376,2.078c-.419.72-.8,1.467-1.148,2.215s-.647,1.5-.912,2.233-.492,1.458-.693,2.151-.355,1.349-.492,1.969c-.273,1.23-.428,2.269-.519,3.008-.046.364-.073.666-.091.866,0,.036-.009.073-.009.109h-5.313c0-15.174,13.862-27.469,30.968-27.469S220.878,235,220.878,250.18Z" transform="translate(-151.876 -202.315)" fill="#6bc77e"/>
      <path id="Path_87968" data-name="Path 87968" d="M189.453,406.1H117.646a2.123,2.123,0,1,1,0-4.247h71.805a2.123,2.123,0,0,1,0,4.247Z" transform="translate(-115.523 -352.306)" fill="#6bc77e"/>
      <path id="Path_87969" data-name="Path 87969" d="M335.579,184.758a2.98,2.98,0,1,1-2.98-2.98,2.979,2.979,0,0,1,2.98,2.98" transform="translate(-294.776 -165.765)" fill="#6bc77e"/>
      <path id="Path_87971" data-name="Path 87971" d="M3.275,6.206A4.55,4.55,0,0,1,3,10.508a5.7,5.7,0,0,1-1.868,1.577,3.806,3.806,0,0,0,.428-1.741A14.758,14.758,0,0,0,.4,5.879a4.55,4.55,0,0,1,.273-4.3A5.7,5.7,0,0,1,2.537,0a3.806,3.806,0,0,0-.428,1.741A14.773,14.773,0,0,0,3.275,6.206Z" transform="translate(38.318 0) rotate(11)" fill="#6bc77e"/>
      <path id="Path_87972" data-name="Path 87972" d="M.407,6.216a4.563,4.563,0,0,0,.246,4.3A5.911,5.911,0,0,0,2.513,12.1a3.806,3.806,0,0,1-.419-1.75A14.681,14.681,0,0,1,3.288,5.887a4.563,4.563,0,0,0-.246-4.3A5.911,5.911,0,0,0,1.182,0,3.806,3.806,0,0,1,1.6,1.75,14.942,14.942,0,0,1,.407,6.216Z" transform="translate(40.77 7.587) rotate(-13)" fill="#6bc77e"/>
      <path id="Path_87973" data-name="Path 87973" d="M3.379,5.759a4.3,4.3,0,0,1,.21,4.074A5.54,5.54,0,0,1,2,11.519a3.432,3.432,0,0,0,.21-1.686A13.923,13.923,0,0,0,.628,5.759a4.3,4.3,0,0,1-.21-4.074A5.54,5.54,0,0,1,2,0a3.432,3.432,0,0,0-.21,1.686A13.977,13.977,0,0,0,3.379,5.759Z" transform="matrix(0.921, 0.391, -0.391, 0.921, 33.921, 4.46)" fill="#6bc77e"/>
    </g>
    <g id="Ellipse_1042" data-name="Ellipse 1042" transform="translate(925 315.206)" fill="none" stroke="#6bc77e" stroke-width="3">
      <ellipse cx="22" cy="21.5" rx="22" ry="21.5" stroke="none"/>
      <ellipse cx="22" cy="21.5" rx="20.5" ry="20" fill="none"/>
    </g>
    <path id="Path_88904" data-name="Path 88904" d="M0,.048S7.356-.893,14.617,5.593" transform="matrix(0.999, 0.035, -0.035, 0.999, 946.75, 316.527)" fill="none" stroke="#ec5252" stroke-width="3"/>
    <path id="Path_88905" data-name="Path 88905" d="M0,.009A20.917,20.917,0,0,1,14.369,5.554" transform="matrix(0.682, 0.731, -0.731, 0.682, 961.114, 322.586)" fill="none" stroke="#bec4f6" stroke-width="3"/>
  </g>
</svg>
